<?xml version="1.0" encoding="UTF-8" standalone="no"?>
<svg
   xmlns:dc="http://purl.org/dc/elements/1.1/"
   xmlns:cc="http://creativecommons.org/ns#"
   xmlns:rdf="http://www.w3.org/1999/02/22-rdf-syntax-ns#"
   xmlns:svg="http://www.w3.org/2000/svg"
   xmlns="http://www.w3.org/2000/svg"
   xmlns:sodipodi="http://sodipodi.sourceforge.net/DTD/sodipodi-0.dtd"
   xmlns:inkscape="http://www.inkscape.org/namespaces/inkscape"
   width="2083"
   height="2083"
   viewBox="0 0 2083 2083"
   version="1.1"
   id="svg8"
   inkscape:version="1.0.1 (3bc2e813f5, 2020-09-07)"
   sodipodi:docname="favicon.svg"
   inkscape:export-filename="C:\Users\James\Documents\Development\myblog\themes\hugo-coder-portfolio-master\images\mylogos\favicon.png"
   inkscape:export-xdpi="1.4747959"
   inkscape:export-ydpi="1.4747959">
  <defs
     id="defs2" />
  <sodipodi:namedview
     id="base"
     pagecolor="#ffffff"
     bordercolor="#666666"
     borderopacity="1.0"
     inkscape:pageopacity="0.10196078"
     inkscape:pageshadow="2"
     inkscape:zoom="0.26644263"
     inkscape:cx="708.63226"
     inkscape:cy="941.52017"
     inkscape:document-units="px"
     inkscape:current-layer="layer2"
     inkscape:document-rotation="0"
     showgrid="true"
     inkscape:lockguides="true"
     showguides="false"
     inkscape:pagecheckerboard="false"
     units="px"
     scale-x="1"
     lock-margins="true"
     inkscape:window-width="1366"
     inkscape:window-height="745"
     inkscape:window-x="-8"
     inkscape:window-y="-8"
     inkscape:window-maximized="1">
    <inkscape:grid
       type="xygrid"
       id="grid18" />
  </sodipodi:namedview>
  <metadata
     id="metadata5">
    <rdf:RDF>
      <cc:Work
         rdf:about="">
        <dc:format>image/svg+xml</dc:format>
        <dc:type
           rdf:resource="http://purl.org/dc/dcmitype/StillImage" />
        <dc:title></dc:title>
      </cc:Work>
    </rdf:RDF>
  </metadata>
  <g
     inkscape:label="background"
     inkscape:groupmode="layer"
     id="layer1"
     style="display:inline"
     sodipodi:insensitive="true" />
  <g
     inkscape:groupmode="layer"
     id="layer2"
     inkscape:label="logo"
     style="display:inline;opacity:0.59333333"
     sodipodi:insensitive="true">
    <path
       sodipodi:type="star"
       style="fill:#006680"
       id="path6201"
       sodipodi:sides="6"
       sodipodi:cx="817.51288"
       sodipodi:cy="1342.4871"
       sodipodi:r1="395.9798"
       sodipodi:r2="342.92856"
       sodipodi:arg1="0.78539816"
       sodipodi:arg2="1.3089969"
       inkscape:flatsided="true"
       inkscape:rounded="0"
       inkscape:randomized="0"
       d="m 1097.5129,1622.4871 -382.48713,102.4871 -280,-280 L 537.51288,1062.4871 919.99999,959.99995 1200,1239.9999 Z" />
    <path
       sodipodi:type="star"
       style="display:inline;fill:#006680"
       id="path6201-2"
       sodipodi:sides="6"
       sodipodi:cx="617.51288"
       sodipodi:cy="622.48712"
       sodipodi:r1="395.9798"
       sodipodi:r2="342.92856"
       sodipodi:arg1="0.78539816"
       sodipodi:arg2="1.3089969"
       inkscape:flatsided="true"
       inkscape:rounded="0"
       inkscape:randomized="0"
       d="m 897.51288,902.48712 -382.48711,102.48708 -280,-279.99996 102.48711,-382.48712 382.48711,-102.48711 280,280 z" />
    <path
       sodipodi:type="star"
       style="display:inline;fill:#006680"
       id="path6201-8"
       sodipodi:sides="6"
       sodipodi:cx="1377.5129"
       sodipodi:cy="822.48712"
       sodipodi:r1="395.9798"
       sodipodi:r2="342.92856"
       sodipodi:arg1="0.78539816"
       sodipodi:arg2="1.3089969"
       inkscape:flatsided="true"
       inkscape:rounded="0"
       inkscape:randomized="0"
       d="m 1657.5129,1102.4871 -382.4871,102.4871 -279.99997,-279.99996 102.48707,-382.48712 382.4872,-102.48711 280,280 z" />
  </g>
  <g
     inkscape:groupmode="layer"
     id="layer4"
     inkscape:label="outline">
    <path
       style="fill:#000000;fill-opacity:1;fill-rule:nonzero;stroke:none"
       id="path7186"
       d="m 433.5953,574.85538 c 22.38843,-5.04573 44.64375,-10.72346 67.1653,-15.13717 116.08148,-22.74935 233.36037,-39.12509 349.9254,-59.10055 97.97311,-16.78942 84.68353,-14.78484 173.3314,-33.43708 38.5502,-11.77091 79.904,-20.53112 114.5908,-42.36214 4.3207,-2.71934 7.8723,-6.50235 11.8084,-9.75352 0,0 -35.004,-3.00253 -35.004,-3.00253 v 0 c -3.339,3.06707 -6.285,6.62655 -10.0168,9.20122 -31.5978,21.79988 -70.3025,30.81839 -106.09627,42.54488 -24.09624,5.46028 -48.08768,11.40564 -72.28873,16.38084 -149.56139,30.74653 -301.10357,50.32808 -451.53589,76.04982 -24.92611,4.262 -49.69423,9.40136 -74.54134,14.10204 0,0 32.66173,4.51419 32.66173,4.51419 z" />
    <path
       style="fill:#000000;fill-opacity:1;fill-rule:nonzero;stroke:none"
       id="path7188"
       d="m 705.42469,539.97648 c 1.77013,7.98667 3.8742,15.90659 5.3104,23.96001 14.46818,81.12973 19.56745,164.08807 17.65899,246.41714 -0.53757,23.19051 -2.29703,46.33659 -3.44555,69.50488 -4.98955,58.51343 -12.45405,117.10097 -27.55805,173.97509 -7.13842,26.8797 -13.47613,47.1452 -27.98139,70.5556 -4.76277,7.6867 -11.13943,14.2476 -16.70914,21.3714 -11.08449,7.503 -25.39907,21.7453 -41.62244,14.4664 -3.38695,-1.5197 8.94319,-6.0734 6.6114,-8.9619 -7.89526,-9.7802 -21.39354,-13.342 -31.08143,-21.3502 -30.45184,-25.1723 -41.24404,-41.1675 -66.75074,-71.7875 -28.31655,-37.3327 -53.9842,-76.80971 -69.97254,-121.14129 -11.21901,-31.10745 -10.7423,-38.61031 -15.05227,-69.72792 0,0 -32.05464,0.48781 -32.05464,0.48781 v 0 c 5.26615,31.34237 5.17254,39.22311 16.87959,70.48825 16.67566,44.53442 42.65096,84.18105 71.23073,121.88565 24.26451,30.0747 35.99242,47.2745 64.53939,72.7538 9.23969,8.2468 17.98271,18.2014 29.62634,22.4212 11.79953,4.2764 60.88593,15.4169 82.39361,6.4184 7.03736,-2.9443 12.15019,-9.2274 18.22528,-13.8412 5.19782,-7.3525 11.19794,-14.199 15.59346,-22.0575 13.49118,-24.1201 18.86351,-44.1448 25.17278,-71.3756 13.27133,-57.27899 19.95589,-115.928 24.48134,-174.45558 1.08389,-23.21048 2.69698,-46.40228 3.25167,-69.63143 1.96078,-82.11319 -2.33308,-165.20904 -9.97403,-246.9878 -0.75936,-8.12713 -2.01602,-16.2001 -3.02403,-24.30016 0,0 -35.74873,0.91245 -35.74873,0.91245 z" />
    <path
       style="fill:#000000;fill-opacity:1;fill-rule:nonzero;stroke:none"
       id="path7190"
       d="m 960.40149,628.5807 c -1.05225,6.69734 -1.87566,13.43466 -3.15675,20.09201 -5.30677,27.57725 -11.33404,50.83895 -18.0863,78.52748 -14.96044,61.34722 -30.14682,122.6361 -45.43523,183.90229 -6.32651,23.7286 -12.54509,47.48624 -18.97952,71.18581 -14.86833,54.76371 -20.99797,77.55381 -38.29485,130.99171 -14.90619,46.052 -31.62391,91.4923 -48.64181,136.7935 -14.08518,36.417 -7.49108,19.2543 -19.80759,51.4783 0,0 33.53156,1.1503 33.53156,1.1503 v 0 c 10.71123,-32.2785 4.94108,-15.0825 17.35969,-51.5714 22.06621,-66.5023 44.00185,-133.1715 63.06911,-200.6077 6.34291,-22.4333 11.95469,-45.0673 18.06372,-67.5654 6.45114,-23.75808 13.07767,-47.4682 19.61651,-71.2023 25.02556,-94.41439 50.19101,-188.77777 77.30866,-282.61667 0,0 -36.5472,-0.55793 -36.5472,-0.55793 z" />
    <path
       style="fill:#000000;fill-opacity:1;fill-rule:nonzero;stroke:none"
       id="path7196"
       d="m 976.11277,641.38327 c 27.99253,77.74422 37.93803,160.07408 49.04763,241.46949 3.3478,24.52847 6.683,49.05866 10.0245,73.58799 9.5771,67.63915 19.8829,135.24425 33.4248,202.22365 8.927,44.1536 13.1507,59.2942 23.665,101.5547 0,0 29.5226,-0.7607 29.5226,-0.7607 v 0 c -4.3156,-15.5142 -8.9288,-30.9486 -12.9466,-46.5425 -21.7538,-84.4304 -36.3804,-170.5268 -48.4597,-256.81168 -12.4519,-94.06361 -7.0789,-52.44523 -18.8649,-145.52834 -2.8549,-22.54719 -5.1605,-45.17041 -8.5503,-67.64339 -5.2003,-34.47472 -12.6174,-68.80482 -21.1385,-102.60498 0,0 -35.72453,1.05576 -35.72453,1.05576 z" />
    <path
       style="fill:#000000;fill-opacity:1;fill-rule:nonzero;stroke:none"
       id="path7198"
       d="m 1146.6891,1257.3126 c 1.3003,-5.5504 2.7846,-11.0609 3.9008,-16.6512 7.5473,-37.8003 12.6353,-76.1599 18.4924,-114.2378 14.317,-93.0779 2.0437,-12.1879 17.2945,-113.351 11.9904,-78.43114 26.484,-156.53907 45.5177,-233.58565 8.1421,-32.95862 12.097,-46.07783 20.9738,-77.51546 9.0315,-33.65958 21.4782,-66.28733 30.8633,-99.82963 0,0 -36.1256,-0.9053 -36.1256,-0.9053 v 0 c -7.7764,33.54811 -18.4728,66.37013 -26.2661,99.92275 -25.159,102.90972 -45.6433,206.84723 -62.3164,311.47529 -0.039,0.2264 -18.6414,108.2924 -19.5269,113.2985 -6.7342,38.0728 -13.2598,76.4645 -23.575,113.7846 -1.5341,5.5507 -3.5543,10.9554 -5.3315,16.433 0,0 36.099,1.1619 36.099,1.1619 z" />
  </g>
</svg>
